<?xml version="1.0" encoding="UTF-8"?>
<svg id="Layer_1" xmlns="http://www.w3.org/2000/svg" version="1.1" viewBox="384.5 384.5 231 231">
  <!-- Generator: Adobe Illustrator 30.3.0, SVG Export Plug-In . SVG Version: 2.1.3 Build 182)  -->
  <defs>
    <style>
      .st0 {
        fill: #fff;
      }

      .st1 {
        fill: #434b9f;
      }
    </style>
  </defs>
  <circle class="st1" cx="500" cy="500" r="115.33"/>
  <g>
    <g>
      <path class="st0" d="M530.79,443.83c5.82,6.47,10.07,14.99,10.07,28.42,0,14.79-8.77,29.74-22.87,36.11,14.96,5.33,23.21,15.82,23.21,30.43,0,22.87-17.88,33.87-40.4,33.87s-40.23-12.38-40.23-33.87h8.43c0,17.37,14.79,25.62,31.81,25.62s32.15-7.56,32.15-25.62-16.33-25.45-32.15-25.45c-24.59,0-39.89-18.4-39.89-41.09,0-26.48,17.88-41.44,39.89-41.44,8.34,0,17.17,2.67,23.48,7.32,2.34,1.73,3.8,2.67,6.52,5.69ZM469.33,472.25c0,17.54,12.04,32.67,31.47,32.67,17.54,0,31.81-15.13,31.81-32.67,0-21.49-14.27-33.01-31.81-33.01s-31.47,10.83-31.47,33.01Z"/>
      <path class="st0" d="M500.79,573.97c-24.85,0-41.55-14.14-41.55-35.18v-1.31h11.05v1.31c0,17.94,16.43,24.31,30.5,24.31,7.23,0,30.84-1.75,30.84-24.31,0-17.81-16.61-24.13-30.84-24.13-23.87,0-41.2-17.83-41.2-42.41s16.56-42.75,41.2-42.75c8.75,0,17.82,2.83,24.25,7.58l.72.53c1.94,1.42,3.47,2.54,5.99,5.34h0c7.1,7.89,10.4,17.2,10.4,29.3,0,14.9-8.31,28.97-20.95,35.95,13.94,5.88,21.29,16.4,21.29,30.59,0,21.7-15.98,35.18-41.72,35.18ZM461.9,540.1c.69,18.75,16.14,31.25,38.9,31.25,18.9,0,39.09-8.55,39.09-32.56,0-13.89-7.73-23.99-22.34-29.2l-3.07-1.09,2.97-1.34c13.22-5.96,22.1-19.99,22.1-34.91,0-11.41-3.09-20.16-9.73-27.54h0c-2.33-2.6-3.7-3.6-5.59-4.98l-.73-.54c-6-4.42-14.49-7.07-22.7-7.07-23.07,0-38.58,16.13-38.58,40.12s15.86,39.78,38.58,39.78c15.44,0,33.46,7.01,33.46,26.76s-17.29,26.93-33.46,26.93c-19.58,0-32.41-10.01-33.1-25.62h-5.8ZM500.79,506.23c-18.99,0-32.78-14.29-32.78-33.98,0-20.85,12.87-34.32,32.78-34.32s33.12,13.79,33.12,34.32c0,18.42-15.17,33.98-33.12,33.98ZM500.79,440.55c-14.58,0-30.15,8.33-30.15,31.7,0,15.58,10.36,31.36,30.15,31.36,16.53,0,30.49-14.36,30.49-31.36,0-19.26-11.97-31.7-30.49-31.7Z"/>
    </g>
    <path class="st0" d="M475.79,444.16c-.14-.34-3.54-8.38-17.74-7.57l-.57-10.49c22.27-1.22,27.92,13.77,28.15,14.41l-9.88,3.56,4.94-1.78-4.91,1.88Z"/>
    <path class="st0" d="M504.73,545.02h-11.07v-5.32c0-4.77-3.88-8.65-8.65-8.65h-7.85c-3.79,0-6.88,3.09-6.88,6.88h-11.07c0-9.89,8.05-17.94,17.94-17.94h7.85c10.87,0,19.72,8.84,19.72,19.72v5.32Z"/>
  </g>
</svg>