<?xml version="1.0" encoding="UTF-8"?>
<svg id="Layer_1" xmlns="http://www.w3.org/2000/svg" version="1.1" viewBox="0 0 1000 1000">
  <!-- Generator: Adobe Illustrator 30.3.0, SVG Export Plug-In . SVG Version: 2.1.3 Build 182)  -->
  <defs>
    <style>
      .st0 {
        fill: #ffd111;
      }

      .st1 {
        fill: #fff;
      }
    </style>
  </defs>
  <path class="st0" d="M208.3,427h-29.17v100.45h9.73v-33.99h19.44c10.21,0,18.79-3.6,24.82-10.41,5.34-6.03,8.27-14.13,8.27-22.82,0-16.01-10.36-33.23-33.09-33.23ZM231.77,460.3c0,6.35-2.09,12.25-5.87,16.63-4.25,4.91-10.33,7.51-17.6,7.51h-19.44v-48.27h19.44c16.12,0,23.47,12.51,23.47,24.14Z"/>
  <path class="st0" d="M285.82,455.23c-9.51,0-17.48,3.78-22.05,10.28l-.22-9.58h-8.58v71.52h9.03v-41.52c0-12.26,9.59-21.97,21.82-22.1,4.14,0,7.92,1.03,11.23,3.07l.96.59,4.13-7.51-.88-.53c-4.87-2.95-10.09-4.38-15.44-4.23Z"/>
  <path class="st0" d="M369.85,468.39c-5.94-8.4-15.88-13.3-27.3-13.3-20.71,0-36.32,15.74-36.32,36.6s15.62,36.88,36.32,36.88c11.13,0,20.7-4.76,27.3-13.49v12.36h9.03v-71.52h-9.03v12.46ZM370.45,491.76c0,13.45-8.73,27.93-27.89,27.93-15.82,0-27.3-11.78-27.3-28s11.48-27.86,27.3-27.86c19.16,0,27.89,14.48,27.89,27.93Z"/>
  <polygon class="st0" points="508.63 497.48 501.61 515.21 494.47 497.62 478.05 455.93 468.29 455.93 496.52 525.53 483.28 556.38 492.92 556.38 536.11 455.93 526.33 455.93 508.63 497.48"/>
  <path class="st0" d="M605.51,468.39c-5.95-8.4-15.88-13.3-27.3-13.3-20.71,0-36.32,15.74-36.32,36.6s15.62,36.88,36.32,36.88c11.13,0,20.7-4.76,27.3-13.49v12.36h9.03v-71.52h-9.03v12.46ZM606.1,491.76c0,13.45-8.73,27.93-27.89,27.93-15.82,0-27.3-11.78-27.3-28s11.48-27.86,27.3-27.86c19.16,0,27.89,14.48,27.89,27.93Z"/>
  <path class="st0" d="M663.58,454.67c-9.96.15-18.38,4.14-23.63,11.09v-9.83h-8.89v71.52h9.03v-39.69c0-13.89,9.77-24.08,23.23-24.21,7.37-.06,13.49,2.03,17.57,6.08,4.02,3.99,6.06,9.66,6.06,16.87v40.96h9.03v-41.1c0-19.25-12.71-31.69-32.41-31.69Z"/>
  <polygon class="st1" points="724.66 471.78 727.53 463.32 729.26 457.91 731 463.38 733.85 471.78 735.94 471.78 742.36 453.54 739.94 453.54 734.92 468.35 729.97 453.54 728.56 453.54 723.59 468.35 718.59 453.54 716.2 453.54 722.57 471.78 724.66 471.78"/>
  <path class="st1" d="M745.16,456.53c.71,0,1.44-.49,1.44-1.42,0-1.87-2.87-1.87-2.87,0,0,.93.72,1.42,1.44,1.42Z"/>
  <rect class="st1" x="744.07" y="458.57" width="2.13" height="13.16"/>
  <path class="st1" d="M754.82,469.85c-1.75,0-3.27-.7-4.09-1.88l-.3-.43-1.57,1.4.22.33c1.08,1.66,3.22,2.65,5.72,2.65,3.36,0,5.4-1.44,5.47-3.85.14-3.12-3.03-3.65-5.13-4l-.43-.07c-1.72-.3-3.14-.64-3.17-1.76-.01-.36.11-.67.37-.93.52-.53,1.54-.84,2.76-.84,1.36.02,2.46.17,3.59,1.17l.34.29,1.36-1.45-.34-.31c-1.24-1.16-2.87-1.75-4.85-1.75-1.84-.03-3.4.51-4.33,1.44-.65.65-.98,1.47-.97,2.43.03,2.88,2.85,3.35,5.13,3.73,2.19.35,3.62.68,3.59,1.95-.06,1.69-2.36,1.88-3.34,1.88Z"/>
  <path class="st1" d="M768.91,471.93c1.81,0,3.47-.72,4.62-1.94v1.74h2.11v-18.2h-2.11v6.74c-1.1-1.19-2.7-1.85-4.6-1.85-3.94,0-6.58,2.71-6.58,6.75s2.63,6.75,6.56,6.75ZM764.46,465.18c0-3.45,2.34-4.67,4.52-4.67,2.62,0,4.53,1.96,4.53,4.65s-1.86,4.67-4.53,4.67c-2.19,0-4.52-1.22-4.52-4.65Z"/>
  <path class="st1" d="M791.93,465.2c0-3.94-2.8-6.8-6.65-6.8s-6.65,2.86-6.65,6.8,2.74,6.7,6.65,6.7,6.65-2.76,6.65-6.7ZM785.28,460.45c2.64,0,4.55,2,4.55,4.75s-1.87,4.6-4.55,4.6-4.55-1.89-4.55-4.6,1.91-4.75,4.55-4.75Z"/>
  <path class="st1" d="M809.42,458.38c-1.89,0-3.57.91-4.5,2.39-.88-1.52-2.51-2.39-4.54-2.39-1.41,0-2.64.48-3.53,1.36v-1.11h-2.06v13.11h2.13v-7.69c0-2.11,1.41-3.59,3.44-3.59s3.47,1.48,3.47,3.59v7.69h2.13v-7.69c0-2.13,1.42-3.61,3.46-3.61s3.44,1.42,3.44,3.54v7.77h2.13v-7.77c0-3.29-2.29-5.59-5.57-5.59Z"/>
  <path class="st1" d="M818,470.53c0,.93.72,1.42,1.44,1.42s1.44-.49,1.44-1.42c0-1.87-2.87-1.87-2.87,0Z"/>
  <path class="st1" d="M723.91,481.63l-8.16,18.2h2.44l1.87-4.25h9.72l1.9,4.25h2.44l-8.16-18.2h-2.05ZM720.99,493.42l3.93-8.91,3.93,8.91h-7.87Z"/>
  <path class="st1" d="M745.01,489.96l.32.32,1.45-1.41-.34-.33c-1.29-1.26-2.98-1.96-4.76-1.96-3.96,0-6.73,2.75-6.73,6.68s2.83,6.68,6.73,6.68c1.81,0,3.5-.7,4.77-1.96l.33-.32-1.47-1.47-.33.33c-2.5,2.5-7.92,1.64-7.92-3.25s5.59-5.66,7.95-3.3Z"/>
  <path class="st1" d="M750.73,495.61c0,2.95,1.27,4.38,3.89,4.38.76,0,1.57-.22,2.5-.66l.39-.19-.78-1.83-.43.21c-.6.29-1.2.45-1.68.45-1.35,0-1.79-.57-1.79-2.35v-6.97h4.15v-1.93h-4.15v-3.73l-2.1.22v3.51h-2.59v1.93h2.59v6.97Z"/>
  <path class="st1" d="M759.49,483.2c0,.93.72,1.42,1.44,1.42s1.44-.49,1.44-1.42c0-1.87-2.87-1.87-2.87,0Z"/>
  <rect class="st1" x="759.84" y="486.66" width="2.13" height="13.16"/>
  <path class="st1" d="M765.19,493.29c0,3.95,2.74,6.7,6.65,6.7s6.65-2.76,6.65-6.7-2.8-6.8-6.65-6.8-6.65,2.86-6.65,6.8ZM771.85,497.89c-2.68,0-4.55-1.89-4.55-4.6s1.91-4.75,4.55-4.75,4.55,2,4.55,4.75-1.87,4.6-4.55,4.6Z"/>
  <path class="st1" d="M793.31,499.82v-7.49c0-3.55-2.34-5.84-5.97-5.84-1.56.02-2.91.56-3.88,1.5v-1.28h-2.1v13.11h2.13v-7.25c0-2.29,1.6-3.96,3.81-3.98h.06c1.2,0,2.18.34,2.83.99.65.65.99,1.58.99,2.77v7.47h2.13Z"/>
  <path class="st1" d="M798.95,498.62c0-1.87-2.87-1.87-2.87,0,0,.93.72,1.42,1.44,1.42s1.44-.49,1.44-1.42Z"/>
  <path class="st1" d="M725.05,520.04h6.02v4.17c-1.3,1.13-3,1.75-4.8,1.75-5.29,0-7.17-3.83-7.17-7.12-.01-2.08.7-3.96,2.01-5.28,1.27-1.28,3.06-1.96,5.15-1.96,1.95,0,3.9.78,5.23,2.09l.34.34,1.38-1.52-.32-.31c-1.78-1.76-4.14-2.72-6.64-2.72-2.74,0-5.1.9-6.8,2.61-1.69,1.7-2.58,4.05-2.57,6.78,0,4.62,2.9,9.27,9.37,9.27,2.6,0,4.9-.98,6.84-2.92l.14-.13v-7.12h-8.2v2.08Z"/>
  <path class="st1" d="M742.53,514.67c-1.52,0-2.85.47-3.75,1.36l-.03-1.23h-2.04v13.11h2.13v-7.57c0-2,1.57-3.59,3.56-3.61.68,0,1.29.17,1.83.5l.41.25.99-1.8-.38-.23c-.86-.52-1.78-.78-2.72-.78Z"/>
  <path class="st1" d="M753.46,514.58c-3.86,0-6.65,2.86-6.65,6.8s2.74,6.7,6.65,6.7,6.65-2.76,6.65-6.7-2.8-6.8-6.65-6.8ZM753.46,525.98c-2.68,0-4.55-1.89-4.55-4.6s1.91-4.75,4.55-4.75,4.55,2,4.55,4.75-1.87,4.6-4.55,4.6Z"/>
  <polygon class="st1" points="774.83 524.62 771.46 514.8 769.94 514.8 766.55 524.63 763.2 514.8 760.88 514.8 765.55 527.91 767.53 527.91 769.62 522.29 770.71 518.9 771.76 522.28 773.85 527.91 775.83 527.91 780.47 514.8 778.16 514.8 774.83 524.62"/>
  <path class="st1" d="M789.5,525.61c-.6.29-1.2.45-1.68.45-1.35,0-1.79-.57-1.79-2.35v-6.97h4.15v-1.93h-4.15v-3.73l-2.1.22v3.51h-2.59v1.93h2.59v6.97c0,2.95,1.27,4.38,3.89,4.38.76,0,1.57-.22,2.5-.66l.39-.19-.78-1.83-.43.21Z"/>
  <path class="st1" d="M799.05,514.63c-1.59.02-2.95.56-3.93,1.54v-6.45h-2.08v18.2h2.13v-7.15c0-2.35,1.63-4.06,3.88-4.06s3.46,1.27,3.46,3.76v7.44h2.1v-7.44c0-3.66-2.08-5.84-5.57-5.84Z"/>
  <path class="st1" d="M807.38,526.71c0,.93.72,1.42,1.44,1.42s1.44-.49,1.44-1.42c0-1.87-2.87-1.87-2.87,0Z"/>
  <path class="st0" d="M444.81,519.13c10.35-5.72,17.16-17.25,17.16-29.45,0-9.91-2.71-17.53-8.52-24-2.07-2.3-3.33-3.22-4.92-4.38l-.58-.43c-5.27-3.89-12.7-6.21-19.87-6.21-6.02,0-11.44,1.26-16.1,3.57-3.3-3.35-9.24-6.9-19.37-6.35l.47,8.59c5.85-.32,9.46,1.19,11.62,2.8-6.57,6.17-10.37,15.32-10.37,26.41,0,20.13,14.19,34.73,33.75,34.73,11.65,0,25.26,5.18,25.26,19.77,0,18.47-19.33,19.91-25.26,19.91-11.52,0-24.98-5.21-24.98-19.91v-.82c.07-3.05,2.56-5.51,5.62-5.51h6.43c3.91,0,7.08,3.18,7.08,7.09v4.36h9.07v-4.36c0-8.91-7.25-16.15-16.15-16.15h-6.43c-8.1,0-14.7,6.59-14.7,14.7h.03v.7c0,17.24,13.68,28.82,34.03,28.82s34.17-11.04,34.17-28.82c0-11.62-6.02-20.24-17.44-25.05ZM428.08,463.72c15.17,0,24.98,10.19,24.98,25.96,0,13.92-11.44,25.68-24.98,25.68-16.21,0-24.7-12.92-24.7-25.68,0-19.14,12.76-25.96,24.7-25.96Z"/>
</svg>