<?xml version="1.0" encoding="UTF-8"?>
<svg id="Layer_1" data-name="Layer 1" xmlns="http://www.w3.org/2000/svg" viewBox="0 0 439.6 218.7">
  <defs>
    <style>
      .cls-1 {
        fill: #fff;
      }
    </style>
  </defs>
  <g>
    <g>
      <path class="cls-1" d="M193.37,6.2h1.98l14.14,42.3,14.34-42.3h3.83l-16.33,46.4h-3.83l-7.34-21.67-5.82-18.31-5.82,18.18-7.4,21.81h-3.83l-16.19-46.4h3.77l14.28,42.3,14.21-42.3Z"/>
      <path class="cls-1" d="M212.22,53.83h-5.59l-7.62-22.51-4.66-14.65-4.64,14.5-7.69,22.66h-5.59l-17.05-48.86h6.38l13.39,39.67,13.33-39.67h3.75l13.27,39.67,13.45-39.67h6.46l-17.19,48.86ZM209.82,51.36h.65l15.46-43.94h-1.21l-14.9,43.94ZM208.39,51.36h.76l-14.69-43.94h-.21l-14.76,43.94h.77l7.12-20.97,6.99-21.83,6.99,21.99,7.04,20.82ZM178.18,51.36h.64l-14.83-43.94h-1.15l15.34,43.94Z"/>
    </g>
    <g>
      <path class="cls-1" d="M239.5,9.17c0,3.44-5.22,3.44-5.22,0s5.22-3.44,5.22,0ZM235.21,19.68v32.79h3.24V19.68h-3.24Z"/>
      <path class="cls-1" d="M239.67,53.7h-5.7V18.45h5.7v35.25ZM236.44,51.24h.78v-30.33h-.78v30.33ZM236.89,12.98c-1.91,0-3.84-1.31-3.84-3.81,0-5.01,7.68-5,7.68,0,0,2.5-1.93,3.81-3.84,3.81ZM236.89,7.83c-.23,0-1.38.06-1.38,1.35s1.15,1.35,1.38,1.35,1.38-.06,1.38-1.35-1.15-1.35-1.38-1.35Z"/>
    </g>
    <g>
      <path class="cls-1" d="M272.75,25.76c-3.3-2.91-6.55-3.44-10.18-3.44-5.09-.07-9.98,1.85-9.85,6.02.13,4.36,5.82,5.22,9.91,5.95,5.82.99,13.81,1.98,13.48,9.58-.2,7.2-7.67,9.12-13.42,9.12s-11.43-2.18-14.28-6.54l2.38-2.11c2.71,3.9,7.6,5.55,11.96,5.55,3.97,0,9.98-1.06,10.18-6.21.13-4.69-5.29-5.62-10.64-6.48-6.34-1.05-12.62-2.24-12.69-8.79-.06-6.41,6.35-9.19,12.96-9.12,4.76,0,8.92,1.32,12.16,4.36l-1.98,2.11Z"/>
      <path class="cls-1" d="M262.7,54.22c-6.69,0-12.41-2.65-15.31-7.1l-.58-.89,4.21-3.74.79,1.14c2.18,3.15,6.28,5.02,10.95,5.02,2.63,0,8.77-.49,8.95-5.03.1-3.4-3.74-4.27-9.61-5.22-6.08-1.01-13.65-2.27-13.72-9.99-.03-2.58.85-4.77,2.6-6.52,2.49-2.49,6.81-3.91,11.6-3.85,5.3,0,9.68,1.58,12.99,4.7l.89.84-3.64,3.88-.89-.79c-3.03-2.67-5.96-3.16-9.62-3.13-3.25,0-5.99.83-7.38,2.25-.7.71-1.02,1.53-.99,2.5.09,2.98,3.9,3.89,8.49,4.7l1.18.2c5.61.94,14.09,2.36,13.72,10.72-.18,6.44-5.65,10.3-14.65,10.3ZM250.08,46.63c2.59,3.19,7.32,5.13,12.62,5.13,2.81,0,11.98-.57,12.19-7.92.25-5.74-4.91-7.07-11.67-8.2l-1.2-.2c-4.13-.73-10.37-1.83-10.53-7.05-.05-1.63.53-3.12,1.69-4.3,1.91-1.95,5.39-3.09,9.41-2.98,3.2,0,6.62.38,10.05,2.99l.32-.34c-2.77-2.18-6.42-3.23-10.61-3.23-4.13,0-7.62,1.13-9.61,3.13-1.27,1.27-1.9,2.86-1.88,4.75.05,5.26,4.65,6.42,11.66,7.58,5.27.85,11.83,1.91,11.67,7.73-.18,4.64-4.44,7.41-11.41,7.41-4.93,0-9.36-1.84-12.12-4.99l-.57.5Z"/>
    </g>
    <g>
      <path class="cls-1" d="M317.29,6.2v46.27h-3.17v-7.2c-2.71,4.96-8.06,7.73-13.62,7.73-9.12,0-16.33-6.02-16.33-16.85s7.27-16.85,16.39-16.85c5.62,0,10.91,2.38,13.55,7.66V6.2h3.17ZM287.35,36.14c0,9.05,6.01,13.68,13.35,13.68s13.35-5.62,13.35-13.75-5.82-13.68-13.35-13.68-13.35,4.56-13.35,13.75Z"/>
      <path class="cls-1" d="M300.5,54.22c-10.5,0-17.56-7.27-17.56-18.08s7.08-18.08,17.62-18.08c5.07,0,9.38,1.77,12.32,4.95V4.97h5.63v48.73h-5.63v-4.66c-3.08,3.27-7.55,5.19-12.38,5.19ZM300.57,20.52c-9.07,0-15.16,6.28-15.16,15.62s5.93,15.62,15.1,15.62c5.34,0,10.14-2.72,12.54-7.09l2.31-4.22v10.79h.71V7.43h-.71v24.74l-2.33-4.66c-2.22-4.44-6.76-6.98-12.45-6.98ZM300.7,51.05c-8.72,0-14.58-5.99-14.58-14.91s5.72-14.98,14.58-14.98,14.58,6.27,14.58,14.91-6.13,14.98-14.58,14.98ZM300.7,23.62c-5.86,0-12.12,3.29-12.12,12.52s6.26,12.45,12.12,12.45c7.14,0,12.12-5.15,12.12-12.52s-5.1-12.45-12.12-12.45Z"/>
    </g>
    <g>
      <path class="cls-1" d="M327.73,36.21c0-10.38,7.4-16.99,16.59-16.99s16.59,6.61,16.59,16.99-7.4,16.72-16.59,16.72-16.59-6.34-16.59-16.72ZM357.74,36.21c0-8.46-6.01-13.95-13.42-13.95s-13.42,5.49-13.42,13.95,6.01,13.55,13.42,13.55,13.42-5.09,13.42-13.55Z"/>
      <path class="cls-1" d="M344.32,54.16c-10.49,0-17.82-7.38-17.82-17.95s7.49-18.22,17.82-18.22,17.82,7.66,17.82,18.22-7.33,17.95-17.82,17.95ZM344.32,20.45c-9.04,0-15.36,6.48-15.36,15.76s6.32,15.49,15.36,15.49,15.36-6.37,15.36-15.49-6.32-15.76-15.36-15.76ZM344.32,50.98c-8.63,0-14.65-6.07-14.65-14.78s6.16-15.18,14.65-15.18,14.65,6.38,14.65,15.18-6.02,14.78-14.65,14.78ZM344.32,23.49c-7.06,0-12.19,5.35-12.19,12.72s5.01,12.31,12.19,12.31,12.19-5.07,12.19-12.31-5.12-12.72-12.19-12.72Z"/>
    </g>
    <g>
      <path class="cls-1" d="M419.4,52.47v-19.57c0-6.28-4.23-10.71-10.44-10.71s-10.51,4.63-10.51,10.91v19.36h-3.24v-19.36c0-6.28-4.3-10.84-10.51-10.84s-10.44,4.56-10.44,10.84v19.36h-3.24V19.81h3.04l.06,5.42c2.25-4.3,6.41-6.08,10.64-6.08,4.96,0,10.18,2.25,12.1,8.06,1.98-5.35,7.07-8.06,12.1-8.06,8,0,13.68,5.62,13.68,13.75v19.57h-3.24Z"/>
      <path class="cls-1" d="M423.88,53.7h-5.7v-20.8c0-5.67-3.7-9.48-9.21-9.48s-9.28,3.98-9.28,9.68v20.6h-5.7v-20.6c0-5.66-3.82-9.61-9.28-9.61s-9.21,3.95-9.21,9.61v20.6h-5.7V18.58h5.49l.04,2.98c2.38-2.35,5.67-3.64,9.45-3.64,5.43,0,9.8,2.35,12.15,6.41,2.49-3.96,6.97-6.41,12.04-6.41,8.78,0,14.91,6.16,14.91,14.98v20.8ZM420.63,51.24h.78v-18.34c0-7.37-5.12-12.52-12.45-12.52-5.01,0-9.31,2.85-10.94,7.26l-1.22,3.3-1.1-3.34c-2.21-6.7-8.92-7.22-10.93-7.22-2.49,0-7.04.7-9.51,5.35,2.07-2.92,5.43-4.7,9.45-4.7,6.8,0,11.74,5.08,11.74,12.07v18.13h.78v-18.13c0-7.04,4.94-12.14,11.74-12.14s11.67,4.91,11.67,11.94v18.34ZM372.25,51.24h.78v-18.13c0-1.66.27-3.21.79-4.61l-.86,1.65-.11-9.09h-.59v30.19Z"/>
    </g>
    <g>
      <path class="cls-1" d="M438.37,50.48c0,3.44-5.22,3.44-5.22,0s5.22-3.44,5.22,0Z"/>
      <path class="cls-1" d="M435.76,54.29c-1.91,0-3.84-1.31-3.84-3.81,0-5,7.68-5.01,7.68,0,0,2.5-1.93,3.81-3.84,3.81ZM435.76,49.14c-.23,0-1.38.06-1.38,1.35s1.15,1.35,1.38,1.35,1.38-.06,1.38-1.35-1.15-1.35-1.38-1.35Z"/>
    </g>
    <g>
      <path class="cls-1" d="M201.63,133.41l-5.09-11.36h-27.63l-5.02,11.36h-3.83l20.75-46.26h3.9l20.75,46.26h-3.83ZM195.15,118.74l-12.43-28.16-12.42,28.16h24.85Z"/>
      <path class="cls-1" d="M207.36,134.64h-6.53l-5.09-11.36h-26.02l-5.02,11.36h-6.54l21.86-48.73h5.49l21.86,48.73ZM202.43,132.18h1.13l-19.65-43.8h-.82l13.94,31.59h-28.63l13.94-31.59h-.75l-19.65,43.8h1.13l5.02-11.36h29.23l5.09,11.36ZM172.19,117.51h21.07l-10.54-23.87-10.53,23.87Z"/>
    </g>
    <g>
      <path class="cls-1" d="M239.5,128.85c-3.3,3.3-7.6,4.89-11.9,4.89-9.19,0-16.79-6.35-16.79-16.66s7.34-16.65,16.79-16.65c4.3,0,8.59,1.65,11.9,4.89l-2.11,2.05c-2.64-2.64-6.28-3.9-9.78-3.9-7.4,0-13.62,4.82-13.62,13.61s6.21,13.62,13.62,13.62c3.5,0,7.07-1.39,9.72-4.03l2.18,2.18Z"/>
      <path class="cls-1" d="M227.6,134.97c-10.44,0-18.02-7.52-18.02-17.89s7.41-17.88,18.02-17.88c4.78,0,9.31,1.86,12.76,5.24l.9.89-3.89,3.77-.85-.85c-6.32-6.31-21.3-4.45-21.3,8.84,0,13.11,14.51,15.43,21.23,8.72l.87-.87,3.92,3.92-.87.87c-3.39,3.38-7.92,5.25-12.77,5.25ZM227.6,101.67c-9.31,0-15.56,6.2-15.56,15.42s6.4,15.43,15.56,15.43c3.77,0,7.32-1.3,10.12-3.69l-.44-.44c-2.69,2.27-6.16,3.56-9.68,3.56-8.74,0-14.85-6.11-14.85-14.85s6.11-14.84,14.85-14.84c3.63,0,7.12,1.24,9.76,3.44l.34-.33c-2.85-2.39-6.39-3.69-10.1-3.69Z"/>
    </g>
    <g>
      <path class="cls-1" d="M256.22,90.91v9.84h11.11v2.71h-11.11v19.89c0,4.43.93,7.54,6.02,7.54,1.59,0,3.37-.53,5.02-1.32l1.12,2.65c-2.05.99-4.1,1.65-6.15,1.65-6.94,0-9.19-4.1-9.19-10.51v-19.89h-6.94v-2.71h6.94v-9.51l3.17-.33Z"/>
      <path class="cls-1" d="M262.23,135.11c-7.01,0-10.42-3.84-10.42-11.74v-18.66h-6.94v-5.17h6.94v-9.39l5.63-.59v9.98h11.11v5.17h-11.11v18.66c0,4.77,1.16,6.3,4.79,6.3,1.29,0,2.88-.43,4.49-1.2l1.16-.56,2.09,4.91-1.06.51c-2.47,1.2-4.65,1.78-6.68,1.78ZM247.34,102.24h6.94v21.12c0,6.51,2.38,9.28,7.96,9.28,1.37,0,2.86-.34,4.54-1.05l-.17-.4c-1.25.49-2.81.93-4.38.93-6.39,0-7.25-4.43-7.25-8.77v-21.12h11.11v-.25h-11.11v-9.71l-.71.08v9.63h-6.94v.25Z"/>
    </g>
    <g>
      <path class="cls-1" d="M281.73,90.12c0,3.44-5.22,3.44-5.22,0s5.22-3.44,5.22,0ZM277.44,100.63v32.78h3.24v-32.78h-3.24Z"/>
      <path class="cls-1" d="M281.9,134.64h-5.7v-35.24h5.7v35.24ZM278.67,132.18h.78v-30.32h-.78v30.32ZM279.12,93.93c-1.91,0-3.84-1.31-3.84-3.81,0-5,7.68-5.01,7.68,0,0,2.5-1.93,3.81-3.84,3.81ZM279.12,88.77c-.23,0-1.38.06-1.38,1.35s1.15,1.35,1.38,1.35,1.38-.06,1.38-1.35-1.15-1.35-1.38-1.35Z"/>
    </g>
    <g>
      <path class="cls-1" d="M291.77,117.15c0-10.38,7.4-16.99,16.59-16.99s16.59,6.61,16.59,16.99-7.4,16.72-16.59,16.72-16.59-6.35-16.59-16.72ZM321.78,117.15c0-8.46-6.02-13.94-13.42-13.94s-13.42,5.48-13.42,13.94,6.02,13.55,13.42,13.55,13.42-5.09,13.42-13.55Z"/>
      <path class="cls-1" d="M308.36,135.11c-10.49,0-17.82-7.38-17.82-17.95s7.49-18.22,17.82-18.22,17.82,7.66,17.82,18.22-7.33,17.95-17.82,17.95ZM308.36,101.4c-9.04,0-15.36,6.48-15.36,15.76s6.32,15.49,15.36,15.49,15.36-6.37,15.36-15.49-6.32-15.76-15.36-15.76ZM308.36,131.93c-8.63,0-14.65-6.08-14.65-14.78s6.16-15.17,14.65-15.17,14.65,6.38,14.65,15.17-6.02,14.78-14.65,14.78ZM308.36,104.44c-7.06,0-12.19,5.35-12.19,12.71s5.01,12.32,12.19,12.32,12.19-5.07,12.19-12.32-5.13-12.71-12.19-12.71Z"/>
    </g>
    <g>
      <path class="cls-1" d="M338.24,100.76v5.82c2.51-4.5,7.07-6.35,11.63-6.41,8.72,0,14.74,5.35,14.74,14.41v18.84h-3.24v-18.77c0-7.4-4.56-11.37-11.63-11.3-6.74.07-11.43,5.16-11.43,11.9v18.18h-3.24v-32.65h3.17Z"/>
      <path class="cls-1" d="M365.84,134.64h-5.7v-20c0-3.19-.89-5.69-2.64-7.42-1.78-1.77-4.36-2.68-7.75-2.65-5.92.06-10.21,4.54-10.21,10.67v19.41h-5.7v-35.11h5.63v3.43c2.6-2.53,6.22-3.96,10.39-4.03,9.72,0,15.98,6.14,15.98,15.64v20.07ZM362.6,132.18h.78v-17.61c0-8.13-5.17-13.18-13.51-13.18-2.75.04-7.8.85-10.56,5.78l-2.3,4.13v-9.32h-.71v30.19h.78v-16.95c0-7.54,5.32-13.05,12.65-13.13,3.98-.07,7.25,1.13,9.51,3.36,2.2,2.18,3.37,5.35,3.37,9.17v17.54Z"/>
    </g>
    <g>
      <path class="cls-1" d="M379.68,131.43c0,3.44-5.22,3.44-5.22,0s5.22-3.44,5.22,0Z"/>
      <path class="cls-1" d="M377.07,135.24c-1.91,0-3.84-1.31-3.84-3.81,0-5,7.68-5.01,7.68,0,0,2.5-1.93,3.81-3.84,3.81ZM377.07,130.09c-.23,0-1.38.06-1.38,1.35s1.15,1.35,1.38,1.35,1.38-.06,1.38-1.35-1.15-1.35-1.38-1.35Z"/>
    </g>
    <g>
      <path class="cls-1" d="M201.23,176.62c-4.03-3.97-9.65-5.95-14.87-5.95-13.55,0-20.49,9.91-20.42,20.62,0,10.9,6.94,20.29,20.42,20.29,4.96,0,10.11-1.72,14.08-5.35v-12.95h-16.13v-3.11h19.5v17.32c-4.82,4.83-10.58,7.47-17.45,7.47-15.73,0-23.86-10.97-23.86-23.59-.07-14.48,9.78-23.93,23.86-23.93,6.08,0,12.23,2.32,16.92,6.94l-2.05,2.25Z"/>
      <path class="cls-1" d="M186.36,216.18c-17.33,0-25.09-12.47-25.09-24.82-.03-7.32,2.34-13.6,6.88-18.16,4.56-4.58,10.86-7,18.21-7,6.7,0,13.01,2.59,17.78,7.29l.84.83-3.71,4.07-.91-.9c-3.56-3.5-8.79-5.6-14.01-5.6-5.61,0-10.39,1.82-13.8,5.25-3.51,3.53-5.42,8.55-5.39,14.13,0,8.8,5.03,19.07,19.19,19.07,4.82,0,9.36-1.66,12.85-4.68v-11.17h-16.13v-5.57h21.96v19.06l-.36.36c-5.19,5.2-11.36,7.83-18.32,7.83ZM186.36,168.66c-6.68,0-12.38,2.17-16.47,6.28-4.06,4.08-6.19,9.76-6.16,16.41,0,11.13,7,22.37,22.63,22.37,6.22,0,11.53-2.21,16.22-6.75v-15.57h-17.04v.65h16.13v14.72l-.4.37c-3.99,3.66-9.28,5.68-14.91,5.68-14.96,0-21.65-10.81-21.65-21.52-.04-6.23,2.13-11.87,6.11-15.87,3.89-3.91,9.26-5.98,15.55-5.98,5.4,0,10.84,2.01,14.8,5.44l.4-.44c-4.19-3.73-9.54-5.78-15.19-5.78Z"/>
    </g>
    <g>
      <path class="cls-1" d="M218.55,181.71l.13,5.82c2.05-4.43,6.68-6.14,10.84-6.14,2.45-.07,4.82.59,7.01,1.91l-1.45,2.65c-1.72-1.06-3.64-1.52-5.55-1.52-6.08.07-10.77,4.96-10.77,10.9v19.03h-3.24v-32.65h3.04Z"/>
      <path class="cls-1" d="M219.98,215.59h-5.7v-35.11h5.47l.08,3.31c2.42-2.39,6-3.58,10.07-3.64,2.51,0,4.97.7,7.27,2.09l1.01.61-2.64,4.82-1.1-.68c-1.44-.89-3.09-1.34-4.91-1.34-5.35.06-9.54,4.31-9.54,9.67v20.26ZM216.74,213.13h.78v-17.8c0-1.15.15-2.26.44-3.3l-.39.84-.22-9.92h-.61v30.19ZM229.86,182.61c-.1,0-.2,0-.31,0-1.72,0-7.43.39-9.76,5.43l-.17.38c2.14-3.14,5.74-5.18,9.88-5.23,1.83,0,3.53.36,5.08,1.09l.27-.5c-1.6-.78-3.27-1.17-4.99-1.17Z"/>
    </g>
    <g>
      <path class="cls-1" d="M242.54,198.1c0-10.38,7.4-16.99,16.59-16.99s16.59,6.61,16.59,16.99-7.4,16.72-16.59,16.72-16.59-6.35-16.59-16.72ZM272.54,198.1c0-8.46-6.01-13.94-13.42-13.94s-13.42,5.48-13.42,13.94,6.01,13.55,13.42,13.55,13.42-5.09,13.42-13.55Z"/>
      <path class="cls-1" d="M259.13,216.05c-10.49,0-17.82-7.38-17.82-17.95s7.49-18.22,17.82-18.22,17.82,7.66,17.82,18.22-7.33,17.95-17.82,17.95ZM259.13,182.34c-9.04,0-15.36,6.48-15.36,15.76s6.32,15.49,15.36,15.49,15.36-6.37,15.36-15.49-6.32-15.76-15.36-15.76ZM259.13,212.88c-8.63,0-14.65-6.08-14.65-14.78s6.16-15.17,14.65-15.17,14.65,6.38,14.65,15.17-6.02,14.78-14.65,14.78ZM259.13,185.39c-7.06,0-12.19,5.35-12.19,12.71s5.01,12.32,12.19,12.32,12.19-5.07,12.19-12.32-5.12-12.71-12.19-12.71Z"/>
    </g>
    <g>
      <path class="cls-1" d="M318.15,214.36h-3.57l-5.29-14.27-3.96-12.69-4.1,12.76-5.29,14.21h-3.57l-11.63-32.65h3.57l9.85,28.88,9.98-28.88h2.32l9.91,28.88,9.78-28.88h3.57l-11.57,32.65Z"/>
      <path class="cls-1" d="M319.02,215.59h-5.3l-5.59-15.08-2.83-9.05-2.91,9.06-5.6,15.06h-5.3l-12.51-35.11h6.2l8.98,26.32,9.09-26.32h4.07l9.02,26.3,8.91-26.3h6.2l-12.44,35.11ZM316.8,213.13h.48l10.69-30.19h-.94l-10.23,30.19ZM315.44,213.13h.49l-10.36-30.19h-.56l-10.43,30.19h.5l4.99-13.4,5.27-16.41,5.12,16.4,4.97,13.41ZM293.24,213.13h.48l-10.29-30.19h-.94l10.75,30.19Z"/>
    </g>
    <g>
      <path class="cls-1" d="M345.12,171.86v9.84h11.1v2.71h-11.1v19.89c0,4.43.93,7.54,6.01,7.54,1.59,0,3.37-.53,5.02-1.32l1.12,2.65c-2.05.99-4.1,1.65-6.15,1.65-6.94,0-9.19-4.1-9.19-10.51v-19.89h-6.94v-2.71h6.94v-9.51l3.17-.33Z"/>
      <path class="cls-1" d="M351.13,216.05c-7.01,0-10.42-3.84-10.42-11.74v-18.66h-6.94v-5.17h6.94v-9.39l5.63-.59v9.98h11.1v5.17h-11.1v18.66c0,4.77,1.16,6.3,4.78,6.3,1.29,0,2.88-.43,4.49-1.2l1.16-.56,2.09,4.91-1.06.51c-2.47,1.2-4.65,1.78-6.68,1.78ZM336.23,183.19h6.94v21.12c0,6.51,2.38,9.28,7.96,9.28,1.37,0,2.86-.34,4.54-1.05l-.17-.4c-1.25.49-2.8.93-4.38.93-6.38,0-7.24-4.43-7.24-8.77v-21.12h11.1v-.25h-11.1v-9.71l-.71.08v9.63h-6.94v.25Z"/>
    </g>
    <g>
      <path class="cls-1" d="M369.44,168.09v19.7c2.64-4.69,7.2-6.48,11.77-6.54,9.12,0,13.68,5.88,13.68,14.41v18.7h-3.17v-18.7c0-6.74-3.17-11.3-10.51-11.3-6.87,0-11.63,5.29-11.63,12.09v17.91h-3.24v-46.26h3.11Z"/>
      <path class="cls-1" d="M396.12,215.59h-5.63v-19.93c0-6.68-3.12-10.07-9.28-10.07s-10.4,4.57-10.4,10.86v19.14h-5.7v-48.73h5.57v17.27c2.63-2.62,6.25-4.06,10.52-4.12,9.35,0,14.93,5.84,14.93,15.64v19.93ZM392.94,213.13h.71v-17.47c0-8.37-4.54-13.18-12.45-13.18-3.38.05-7.99,1.12-10.69,5.92l-2.3,4.09v-23.16h-.64v43.8h.78v-16.68c0-7.6,5.53-13.32,12.86-13.32s11.74,4.57,11.74,12.53v17.47Z"/>
    </g>
    <g>
      <path class="cls-1" d="M409.95,212.38c0,3.44-5.22,3.44-5.22,0s5.22-3.44,5.22,0Z"/>
      <path class="cls-1" d="M407.34,216.19c-1.91,0-3.84-1.31-3.84-3.81,0-5,7.68-5,7.68,0,0,2.5-1.93,3.81-3.84,3.81ZM407.34,211.03c-.23,0-1.38.06-1.38,1.35s1.15,1.35,1.38,1.35,1.38-.06,1.38-1.35-1.15-1.35-1.38-1.35Z"/>
    </g>
  </g>
  <g>
    <g>
      <path class="cls-1" d="M108.36,26.31c8.6,9.56,14.88,22.16,14.88,42.01,0,21.86-12.96,43.97-33.81,53.38,22.11,7.88,34.31,23.38,34.31,44.99,0,33.81-26.43,50.07-59.73,50.07S4.54,198.46,4.54,166.69h12.45c0,25.67,21.86,37.87,47.02,37.87s47.53-11.18,47.53-37.87-24.15-37.62-47.53-37.62c-36.35,0-58.97-27.2-58.97-60.75C5.05,29.18,31.48,7.07,64.02,7.07c12.33,0,25.38,3.95,34.7,10.83,3.47,2.56,5.62,3.95,9.64,8.42ZM17.5,68.32c0,25.93,17.79,48.29,46.51,48.29,25.92,0,47.02-22.37,47.02-48.29,0-31.77-21.1-48.8-47.02-48.8s-46.51,16.01-46.51,48.8Z"/>
      <path class="cls-1" d="M64.02,218.7c-36.74,0-61.42-20.9-61.42-52.01v-1.94h16.33v1.94c0,26.52,24.29,35.93,45.08,35.93,10.69,0,45.59-2.59,45.59-35.93,0-26.33-24.56-35.68-45.59-35.68-35.29,0-60.91-26.36-60.91-62.69S27.59,5.13,64.02,5.13c12.93,0,26.34,4.19,35.86,11.2l1.07.78c2.87,2.1,5.14,3.76,8.86,7.89h0c10.49,11.67,15.38,25.43,15.38,43.31,0,22.02-12.28,42.83-30.96,53.15,20.61,8.69,31.47,24.24,31.47,45.22,0,32.08-23.63,52.01-61.67,52.01ZM6.51,168.63c1.02,27.72,23.87,46.19,57.5,46.19,27.94,0,57.79-12.65,57.79-48.13,0-20.54-11.42-35.46-33.02-43.16l-4.54-1.61,4.39-1.98c19.54-8.82,32.67-29.55,32.67-51.61,0-16.87-4.57-29.81-14.39-40.72h0c-3.45-3.84-5.47-5.31-8.26-7.36l-1.08-.8c-8.87-6.54-21.42-10.45-33.55-10.45C29.91,9.01,6.99,32.85,6.99,68.32s23.45,58.81,57.03,58.81c22.82,0,49.47,10.36,49.47,39.56s-25.55,39.81-49.47,39.81c-28.94,0-47.92-14.8-48.92-37.87H6.51ZM64.02,118.56c-28.08,0-48.46-21.12-48.46-50.23,0-30.82,19.02-50.74,48.46-50.74s48.96,20.39,48.96,50.74c0,27.23-22.42,50.23-48.96,50.23ZM64.02,21.46c-21.55,0-44.58,12.31-44.58,46.86,0,23.03,15.31,46.35,44.58,46.35,24.44,0,45.08-21.23,45.08-46.35,0-28.47-17.69-46.86-45.08-46.86Z"/>
    </g>
    <path class="cls-1" d="M27.06,26.81c-.2-.5-5.23-12.38-26.22-11.2L0,.11c32.92-1.81,41.27,20.35,41.62,21.3l-14.61,5.27,7.31-2.64-7.25,2.77Z"/>
    <path class="cls-1" d="M69.83,175.91h-16.36v-7.86c0-7.05-5.74-12.79-12.79-12.79h-11.61c-5.61,0-10.17,4.56-10.17,10.16H2.55c0-14.63,11.9-26.52,26.53-26.52h11.61c16.07,0,29.14,13.07,29.14,29.14v7.86Z"/>
  </g>
</svg>