<?xml version="1.0" encoding="UTF-8"?>
<svg id="Layer_1" data-name="Layer 1" xmlns="http://www.w3.org/2000/svg" viewBox="0 0 1000 1000">
  <defs>
    <style>
      .cls-1 {
        fill: #e5e5e5;
      }
    </style>
  </defs>
  <path class="cls-1" d="M591.88,535.51c54.73-30.23,90.69-91.16,90.69-155.67,0-52.38-14.31-92.69-45.05-126.86-10.92-12.15-17.58-17.01-26-23.17l-3.07-2.25c-27.87-20.55-67.13-32.82-105.02-32.82-31.81,0-60.47,6.66-85.09,18.87-17.47-17.7-48.82-36.47-102.41-33.58l2.46,45.42c30.92-1.69,50.01,6.29,61.43,14.8-34.71,32.6-54.8,81.01-54.8,139.59,0,106.39,75.03,183.6,178.4,183.6,61.59,0,133.52,27.36,133.52,104.49,0,97.65-102.19,105.23-133.52,105.23-60.91,0-132.04-27.56-132.04-105.23v-4.34c.34-16.12,13.51-29.15,29.71-29.15h33.99c20.65,0,37.45,16.8,37.45,37.46v23.03h47.92v-23.03c0-47.07-38.3-85.37-85.37-85.37h-33.99c-42.84,0-77.69,34.85-77.69,77.69h.13v3.71c0,91.12,72.29,152.34,179.89,152.34s180.62-58.38,180.62-152.34c0-61.42-31.8-106.98-92.18-132.43ZM503.44,242.59c80.2,0,132.03,53.87,132.03,137.25,0,73.59-60.46,135.75-132.03,135.75-85.71,0-130.55-68.29-130.55-135.75,0-101.19,67.44-137.25,130.55-137.25Z"/>
</svg>